<?xml version="1.0" encoding="utf-8"?>
<!-- Generator: Adobe Illustrator 21.1.0, SVG Export Plug-In . SVG Version: 6.00 Build 0)  -->
<svg version="1.1" id="Layer_1" xmlns="http://www.w3.org/2000/svg" xmlns:xlink="http://www.w3.org/1999/xlink" x="0px" y="0px"
	 viewBox="0 0 408 70" style="enable-background:new 0 0 408 70;" xml:space="preserve">
<style type="text/css">
	.st0{fill:#F9AC1E;}
	.st1{fill:#FFFFFF;}
</style>
<g>
	<g>
		<g>
			<path class="st0" d="M162.435,22.146c4.113,0,6.721,2.424,7.198,5.913h-4.48c-0.257-1.249-1.249-2.02-2.718-2.02
				c-2.094,0-3.379,1.91-3.379,4.701c0,2.755,1.285,4.665,3.379,4.665c1.469,0,2.461-0.771,2.718-2.02h4.48
				c-0.478,3.526-3.085,5.913-7.198,5.913c-4.665,0-7.896-3.489-7.896-8.558C154.538,25.636,157.77,22.146,162.435,22.146z"/>
			<path class="st0" d="M179.179,39.298c-4.774,0-8.043-3.526-8.043-8.558c0-5.068,3.269-8.594,8.043-8.594
				c4.775,0,8.044,3.526,8.044,8.594C187.223,35.772,183.954,39.298,179.179,39.298z M179.179,26.003
				c-2.276,0-3.525,1.983-3.525,4.738c0,2.718,1.249,4.701,3.525,4.701c2.277,0,3.526-1.983,3.526-4.701
				C182.705,27.986,181.456,26.003,179.179,26.003z"/>
			<path class="st0" d="M189.313,22.514h4.554v1.506c0.882-1.028,2.498-1.873,4.408-1.873c3.709,0,5.803,2.424,5.803,6.06v10.725
				h-4.555v-9.77c0-1.726-0.881-2.901-2.681-2.901c-1.396,0-2.607,0.845-2.976,2.277v10.394h-4.554L189.313,22.514L189.313,22.514z"
				/>
			<path class="st0" d="M208.039,26.186h-2.497v-3.673h2.497V18.07h4.518v4.444h3.6v3.673h-3.6v7.199
				c0,1.286,0.698,1.873,1.873,1.873c0.698,0,1.47-0.22,1.983-0.551v4.04c-0.624,0.331-1.726,0.514-2.938,0.514
				c-3.343,0-5.437-1.653-5.437-5.289L208.039,26.186L208.039,26.186z"/>
			<path class="st0" d="M228.09,38.931V38.05c-0.551,0.551-2.204,1.175-4.003,1.175c-3.306,0-6.098-1.91-6.098-5.326
				c0-3.122,2.792-5.252,6.354-5.252c1.433,0,3.085,0.478,3.746,0.955V28.39c0-1.396-0.845-2.534-2.681-2.534
				c-1.286,0-2.058,0.588-2.425,1.542h-4.334c0.478-2.975,3.159-5.252,6.905-5.252c4.371,0,6.905,2.387,6.905,6.317V38.93
				L228.09,38.931L228.09,38.931z M228.09,33.275c-0.404-0.881-1.652-1.432-2.975-1.432c-1.433,0-2.901,0.625-2.901,2.02
				c0,1.432,1.469,2.02,2.901,2.02c1.322,0,2.57-0.551,2.975-1.433V33.275z"/>
			<path class="st0" d="M237.453,20.384c-1.47,0-2.718-1.065-2.718-2.608c0-1.506,1.248-2.608,2.718-2.608
				c1.432,0,2.681,1.102,2.681,2.608C240.133,19.318,238.884,20.384,237.453,20.384z M239.729,38.931h-4.554V22.514h4.554V38.931z"
				/>
			<path class="st0" d="M242.816,22.514h4.554v1.506c0.882-1.028,2.498-1.873,4.408-1.873c3.709,0,5.803,2.424,5.803,6.06v10.725
				h-4.555v-9.77c0-1.726-0.881-2.901-2.681-2.901c-1.396,0-2.607,0.845-2.976,2.277v10.394h-4.554L242.816,22.514L242.816,22.514z"
				/>
			<path class="st0" d="M274.857,33.569c-0.588,3.489-3.159,5.729-7.272,5.729c-4.774,0-7.97-3.489-7.97-8.558
				c0-4.958,3.306-8.594,7.896-8.594c4.812,0,7.456,3.342,7.456,8.154v1.396h-10.945c0.146,2.461,1.543,3.93,3.562,3.93
				c1.543,0,2.682-0.661,3.049-2.057C270.633,33.569,274.857,33.569,274.857,33.569z M264.132,28.941h6.354
				c-0.036-1.726-1.064-3.085-2.938-3.085C265.785,25.856,264.536,26.921,264.132,28.941z"/>
			<path class="st0" d="M287.19,26.995c-0.624-0.367-1.433-0.551-2.277-0.551c-1.542,0-2.791,0.808-3.122,2.313v10.174h-4.554
				V22.514h4.554v1.616c0.698-1.175,2.058-1.983,3.673-1.983c0.771,0,1.47,0.147,1.727,0.294L287.19,26.995L287.19,26.995z"/>
			<path class="st0" d="M306.909,26.995c-0.624-0.367-1.433-0.551-2.277-0.551c-1.542,0-2.791,0.808-3.122,2.313v10.174h-4.554
				V22.514h4.554v1.616c0.698-1.175,2.058-1.983,3.673-1.983c0.771,0,1.47,0.147,1.727,0.294L306.909,26.995L306.909,26.995z"/>
			<path class="st0" d="M322.846,33.569c-0.588,3.489-3.159,5.729-7.272,5.729c-4.774,0-7.97-3.489-7.97-8.558
				c0-4.958,3.306-8.594,7.896-8.594c4.812,0,7.456,3.342,7.456,8.154v1.396h-10.945c0.146,2.461,1.543,3.93,3.562,3.93
				c1.543,0,2.682-0.661,3.049-2.057C318.622,33.569,322.846,33.569,322.846,33.569z M312.121,28.941h6.354
				c-0.036-1.726-1.064-3.085-2.938-3.085C313.774,25.856,312.525,26.921,312.121,28.941z"/>
			<path class="st0" d="M336.065,36.874c-0.735,0.881-2.241,1.689-4.04,1.689c-4.738,0-7.456-3.82-7.456-8.227
				c0-4.371,2.718-8.19,7.456-8.19c1.799,0,3.305,0.808,4.04,1.653v-1.286h4.518v14.618c0,5.62-3.416,8.228-8.044,8.228
				c-4.261,0-7.162-2.167-7.64-5.84h4.407c0.368,1.542,1.47,2.313,3.232,2.313c2.313,0,3.526-1.359,3.526-4.003v-0.955H336.065z
				 M336.065,27.656c-0.552-0.918-1.727-1.689-3.086-1.689c-2.424,0-3.856,1.836-3.856,4.371c0,2.571,1.433,4.407,3.856,4.407
				c1.359,0,2.534-0.771,3.086-1.726V27.656z"/>
			<path class="st0" d="M345.793,20.384c-1.47,0-2.718-1.065-2.718-2.608c0-1.506,1.248-2.608,2.718-2.608
				c1.432,0,2.681,1.102,2.681,2.608C348.474,19.318,347.225,20.384,345.793,20.384z M348.07,38.931h-4.554V22.514h4.554V38.931z"/>
			<path class="st0" d="M354.789,34.046c0.367,1.175,1.396,1.8,2.755,1.8c1.396,0,2.313-0.551,2.313-1.616
				c0-0.734-0.514-1.102-1.652-1.396l-3.306-0.735c-2.497-0.587-4.261-1.873-4.261-4.627c0-3.195,2.865-5.326,6.538-5.326
				c4.15,0,6.427,1.983,6.979,5.068h-4.334c-0.294-0.918-1.065-1.616-2.571-1.616c-1.102,0-2.167,0.514-2.167,1.542
				c0,0.661,0.44,1.028,1.469,1.285l3.379,0.771c2.865,0.698,4.371,2.277,4.371,4.774c0,3.342-2.901,5.326-6.721,5.326
				c-4.004,0-6.832-1.91-7.31-5.252h4.518V34.046z"/>
			<path class="st0" d="M367.787,26.186h-2.497v-3.673h2.497V18.07h4.518v4.444h3.6v3.673h-3.6v7.199
				c0,1.286,0.698,1.873,1.873,1.873c0.698,0,1.47-0.22,1.983-0.551v4.04c-0.624,0.331-1.726,0.514-2.938,0.514
				c-3.343,0-5.437-1.653-5.437-5.289v-7.787H367.787z"/>
			<path class="st0" d="M388.793,26.995c-0.624-0.367-1.433-0.551-2.277-0.551c-1.542,0-2.791,0.808-3.122,2.313v10.174h-4.554
				V22.514h4.554v1.616c0.698-1.175,2.058-1.983,3.673-1.983c0.771,0,1.47,0.147,1.727,0.294L388.793,26.995L388.793,26.995z"/>
			<path class="st0" d="M393.455,44.992l2.387-5.987l-6.28-16.491h4.812l3.783,10.908l3.746-10.908h4.591l-8.558,22.478H393.455z"/>
		</g>
		<path class="st0" d="M22.424,22.424V12.106H14.55l0,0l-4.231-4.231V0H0v10.318h7.897l4.231,4.231l0,0v5.453l0,0l-4.231,4.231H0
			v10.318h10.318v-7.874l4.231-4.231h7.874L22.424,22.424L22.424,22.424z M3.439,3.439h3.439v3.439H3.439V3.439z M6.879,31.09h-3.44
			v-3.439h3.439v3.439H6.879z"/>
		<path class="st1" d="M33.96,44.991h-4.554V22.514h4.554v1.359c0.735-0.881,2.351-1.726,4.114-1.726
			c4.774,0,7.492,3.967,7.492,8.594c0,4.628-2.718,8.558-7.492,8.558c-1.764,0-3.379-0.845-4.114-1.726V44.991z M33.96,33.422
			c0.552,1.139,1.764,1.91,3.086,1.91c2.46,0,3.93-1.983,3.93-4.591c0-2.645-1.47-4.627-3.93-4.627c-1.359,0-2.534,0.808-3.086,1.91
			V33.422z"/>
		<path class="st1" d="M62.312,38.931h-4.554v-1.506c-0.919,1.028-2.498,1.873-4.407,1.873c-3.673,0-5.767-2.424-5.767-6.06V22.514
			h4.554v9.807c0,1.726,0.845,2.901,2.645,2.901c1.396,0,2.608-0.845,2.938-2.277V22.514h4.591V38.931z"/>
		<path class="st1" d="M69.912,44.991h-4.554V22.514h4.554v1.359c0.735-0.881,2.351-1.726,4.114-1.726
			c4.774,0,7.492,3.967,7.492,8.594c0,4.628-2.718,8.558-7.492,8.558c-1.764,0-3.379-0.845-4.114-1.726V44.991z M69.912,33.422
			c0.552,1.139,1.764,1.91,3.086,1.91c2.46,0,3.93-1.983,3.93-4.591c0-2.645-1.47-4.627-3.93-4.627c-1.359,0-2.534,0.808-3.086,1.91
			V33.422z"/>
		<path class="st1" d="M88.088,44.991h-4.554V22.514h4.554v1.359c0.735-0.881,2.351-1.726,4.114-1.726
			c4.774,0,7.492,3.967,7.492,8.594c0,4.628-2.718,8.558-7.492,8.558c-1.764,0-3.379-0.845-4.114-1.726V44.991z M88.088,33.422
			c0.552,1.139,1.764,1.91,3.086,1.91c2.46,0,3.93-1.983,3.93-4.591c0-2.645-1.47-4.627-3.93-4.627c-1.359,0-2.534,0.808-3.086,1.91
			V33.422z"/>
		<path class="st1" d="M116.147,33.569c-0.588,3.489-3.159,5.729-7.272,5.729c-4.774,0-7.97-3.489-7.97-8.558
			c0-4.958,3.306-8.594,7.896-8.594c4.812,0,7.456,3.342,7.456,8.154v1.396h-10.945c0.146,2.461,1.543,3.93,3.562,3.93
			c1.543,0,2.682-0.661,3.049-2.057C111.923,33.569,116.147,33.569,116.147,33.569z M105.422,28.941h6.354
			c-0.036-1.726-1.064-3.085-2.938-3.085C107.075,25.856,105.826,26.921,105.422,28.941z"/>
		<path class="st1" d="M119.192,26.186h-2.497v-3.673h2.497V18.07h4.518v4.444h3.6v3.673h-3.6v7.199
			c0,1.286,0.698,1.873,1.873,1.873c0.698,0,1.47-0.22,1.983-0.551v4.04c-0.624,0.331-1.726,0.514-2.938,0.514
			c-3.343,0-5.437-1.653-5.437-5.289L119.192,26.186L119.192,26.186z"/>
		<g>
			<path class="st1" d="M137.874,39.799c-4.825,0-8.763-3.66-8.763-8.763s3.938-8.763,8.763-8.763s8.763,3.66,8.763,8.763
				S142.699,39.799,137.874,39.799z M137.874,23.355c-4.215,0-7.681,3.217-7.681,7.681s3.466,7.681,7.681,7.681
				s7.681-3.217,7.681-7.681S142.089,23.355,137.874,23.355z M137.985,25.463c2.468,0,3.965,1.442,4.382,3.522h-2.052
				c-0.36-1.054-1.165-1.636-2.329-1.636c-1.775,0-2.967,1.469-2.967,3.632s1.192,3.633,2.967,3.633
				c1.165,0,1.969-0.582,2.329-1.636h2.052c-0.416,2.08-1.941,3.522-4.382,3.522c-2.912,0-5.019-2.219-5.019-5.518
				S135.074,25.463,137.985,25.463z"/>
		</g>
	</g>
	<g>
		<path class="st1" d="M32.638,55.137c2.2,0,3.586,1.276,3.916,3.146h-1.693c-0.221-1.056-1.057-1.694-2.223-1.694
			c-1.672,0-2.772,1.496-2.772,3.63s1.101,3.63,2.772,3.63c1.166,0,2.002-0.638,2.223-1.694h1.693
			c-0.33,1.87-1.716,3.146-3.916,3.146c-2.618,0-4.444-2.046-4.444-5.083S30.02,55.137,32.638,55.137z"/>
		<path class="st1" d="M42.089,65.303c-2.685,0-4.488-2.09-4.488-5.083c0-2.992,1.804-5.083,4.488-5.083
			c2.662,0,4.488,2.09,4.488,5.083C46.578,63.212,44.751,65.303,42.089,65.303z M42.089,56.589c-1.761,0-2.816,1.496-2.816,3.63
			s1.056,3.63,2.816,3.63c1.76,0,2.816-1.496,2.816-3.63S43.849,56.589,42.089,56.589z"/>
		<path class="st1" d="M58.258,55.137c1.979,0,3.08,1.386,3.08,3.499v6.469h-1.672V58.9c0-1.364-0.595-2.266-1.849-2.266
			c-0.99,0-1.849,0.682-2.156,1.738v6.733h-1.65V58.9c0-1.364-0.594-2.266-1.848-2.266c-0.99,0-1.849,0.682-2.157,1.738v6.733
			h-1.649v-9.77h1.649v1.144c0.484-0.77,1.431-1.342,2.641-1.342c1.232,0,2.179,0.638,2.641,1.562
			C55.904,55.819,56.894,55.137,58.258,55.137z"/>
		<path class="st1" d="M73.541,55.137c1.979,0,3.08,1.386,3.08,3.499v6.469H74.95V58.9c0-1.364-0.595-2.266-1.849-2.266
			c-0.99,0-1.849,0.682-2.156,1.738v6.733h-1.65V58.9c0-1.364-0.594-2.266-1.848-2.266c-0.99,0-1.849,0.682-2.157,1.738v6.733h-1.65
			v-9.77h1.649v1.144c0.484-0.77,1.431-1.342,2.641-1.342c1.232,0,2.179,0.638,2.641,1.562
			C71.187,55.819,72.177,55.137,73.541,55.137z"/>
		<path class="st1" d="M86.719,65.104h-1.673v-1.232c-0.55,0.77-1.584,1.43-2.838,1.43c-2.223,0-3.411-1.43-3.411-3.565v-6.403
			h1.673v6.139c0,1.364,0.66,2.31,2.134,2.31c1.145,0,2.091-0.77,2.442-1.826v-6.623h1.673V65.104z"/>
		<path class="st1" d="M89.075,55.335h1.649v1.232c0.572-0.77,1.629-1.43,2.883-1.43c2.223,0,3.433,1.43,3.433,3.564v6.403h-1.672
			v-6.139c0-1.364-0.683-2.311-2.157-2.311c-1.144,0-2.134,0.77-2.486,1.826v6.623h-1.649v-9.768H89.075z"/>
		<path class="st1" d="M100.116,53.443c-0.572,0-1.056-0.484-1.056-1.056c0-0.594,0.483-1.056,1.056-1.056
			c0.595,0,1.078,0.462,1.078,1.056C101.194,52.958,100.71,53.443,100.116,53.443z M100.952,65.104h-1.649v-9.77h1.649V65.104z"/>
		<path class="st1" d="M103.847,56.743h-1.584v-1.408h1.584v-2.574h1.65v2.574h2.354v1.408h-2.354v5.721
			c0,0.946,0.462,1.364,1.298,1.364c0.462,0,0.946-0.176,1.276-0.396v1.541c-0.374,0.198-0.946,0.33-1.54,0.33
			c-1.585,0-2.685-0.858-2.685-2.663v-5.897H103.847z"/>
		<path class="st1" d="M111.298,68.845l1.474-3.675l-3.806-9.835h1.782l2.882,7.701l2.839-7.701h1.716l-5.259,13.51H111.298z"/>
	</g>
</g>
</svg>
