<?xml version="1.0" encoding="utf-8"?>
<!-- Generator: Adobe Illustrator 21.1.0, SVG Export Plug-In . SVG Version: 6.00 Build 0)  -->
<svg version="1.1" id="Layer_1" xmlns="http://www.w3.org/2000/svg" xmlns:xlink="http://www.w3.org/1999/xlink" x="0px" y="0px"
	 viewBox="0 0 270 70" style="enable-background:new 0 0 270 70;" xml:space="preserve">
<style type="text/css">
	.st0{fill:#F9AC1E;}
	.st1{fill:#FFFFFF;}
</style>
<g>
	<g>
		<path class="st0" d="M255.799,15.021h4.893v1.046h-1.849v4.688h-1.205v-4.688h-1.839V15.021z"/>
		<path class="st0" d="M263.921,20.754l-1.419-3.745v3.745h-1.121v-5.733h1.42l1.531,4.043l1.522-4.043h1.4v5.733h-1.13v-3.745
			l-1.392,3.745C264.732,20.754,263.921,20.754,263.921,20.754z"/>
	</g>
	<g>
		<path class="st1" d="M33.783,52.321c-0.309-0.198-0.683-0.264-1.034-0.264c-0.969,0-1.606,0.616-1.606,1.782v1.496h2.2v1.408h-2.2
			v8.361h-1.629v-8.361h-1.649v-1.408h1.649v-1.628c0-1.958,1.276-3.103,2.993-3.103c0.527,0,0.901,0.066,1.276,0.22
			C33.783,50.824,33.783,52.321,33.783,52.321z"/>
		<path class="st1" d="M38.314,65.303c-2.685,0-4.488-2.09-4.488-5.083c0-2.992,1.804-5.083,4.488-5.083
			c2.662,0,4.488,2.09,4.488,5.083C42.802,63.212,40.976,65.303,38.314,65.303z M38.314,56.589c-1.761,0-2.816,1.496-2.816,3.63
			s1.056,3.63,2.816,3.63c1.76,0,2.816-1.496,2.816-3.63S40.074,56.589,38.314,56.589z"/>
		<path class="st1" d="M49.556,56.985c-0.265-0.176-0.683-0.264-1.101-0.264c-1.034,0-1.937,0.682-2.267,1.826v6.557h-1.649v-9.77
			h1.649v1.276c0.419-0.836,1.343-1.474,2.421-1.474c0.418,0,0.77,0.066,0.946,0.154L49.556,56.985L49.556,56.985z"/>
		<path class="st1" d="M59.631,55.137c2.2,0,3.587,1.276,3.916,3.146h-1.693c-0.221-1.056-1.057-1.694-2.223-1.694
			c-1.672,0-2.772,1.496-2.772,3.63s1.101,3.63,2.772,3.63c1.166,0,2.002-0.638,2.223-1.694h1.693
			c-0.329,1.87-1.716,3.146-3.916,3.146c-2.618,0-4.444-2.046-4.444-5.083S57.013,55.137,59.631,55.137z"/>
		<path class="st1" d="M69.223,65.303c-2.685,0-4.488-2.09-4.488-5.083c0-2.992,1.804-5.083,4.488-5.083
			c2.662,0,4.488,2.09,4.488,5.083C73.711,63.212,71.885,65.303,69.223,65.303z M69.223,56.589c-1.761,0-2.816,1.496-2.816,3.63
			s1.056,3.63,2.816,3.63s2.816-1.496,2.816-3.63S70.983,56.589,69.223,56.589z"/>
		<path class="st1" d="M75.273,55.335h1.649v1.232c0.572-0.77,1.629-1.43,2.883-1.43c2.223,0,3.433,1.43,3.433,3.564v6.403h-1.672
			v-6.139c0-1.364-0.683-2.311-2.157-2.311c-1.144,0-2.134,0.77-2.486,1.826v6.623h-1.649v-9.768H75.273z"/>
		<path class="st1" d="M85.899,56.743h-1.585v-1.408h1.585v-2.574h1.65v2.574h2.354v1.408h-2.354v5.721
			c0,0.946,0.462,1.364,1.298,1.364c0.462,0,0.946-0.176,1.276-0.396v1.541c-0.374,0.198-0.946,0.33-1.54,0.33
			c-1.585,0-2.685-0.858-2.685-2.663v-5.897H85.899z"/>
		<path class="st1" d="M97.493,65.104v-0.726c-0.374,0.396-1.408,0.902-2.574,0.902c-1.98,0-3.63-1.188-3.63-3.125
			c0-1.827,1.649-3.059,3.74-3.059c1.012,0,2.046,0.418,2.464,0.792v-1.232c0-1.21-0.748-2.09-2.156-2.09
			c-1.034,0-1.694,0.44-2.002,1.342h-1.628c0.33-1.65,1.782-2.772,3.652-2.772c2.332,0,3.719,1.32,3.719,3.454v6.513L97.493,65.104
			L97.493,65.104z M97.493,61.672c-0.286-0.726-1.275-1.21-2.288-1.21c-1.188,0-2.332,0.528-2.332,1.694
			c0,1.188,1.144,1.738,2.332,1.738c1.013,0,2.002-0.484,2.288-1.21V61.672z"/>
		<path class="st1" d="M101.936,53.443c-0.572,0-1.056-0.484-1.056-1.056c0-0.594,0.483-1.056,1.056-1.056
			c0.595,0,1.078,0.462,1.078,1.056C103.014,52.958,102.531,53.443,101.936,53.443z M102.772,65.104h-1.649v-9.77h1.649V65.104z"/>
		<path class="st1" d="M105.14,55.335h1.649v1.232c0.572-0.77,1.629-1.43,2.883-1.43c2.223,0,3.433,1.43,3.433,3.564v6.403h-1.672
			v-6.139c0-1.364-0.683-2.311-2.157-2.311c-1.144,0-2.134,0.77-2.486,1.826v6.623h-1.649v-9.768H105.14z"/>
		<path class="st1" d="M123.092,62.178c-0.352,1.848-1.738,3.125-3.938,3.125c-2.662,0-4.488-2.046-4.488-5.061
			c0-2.926,1.782-5.104,4.444-5.104c2.685,0,4.114,1.958,4.114,4.796v0.594h-6.909c0.022,2.09,1.188,3.367,2.839,3.367
			c1.21,0,2.112-0.616,2.376-1.716h1.562V62.178z M116.359,59.273h5.193c-0.022-1.452-0.792-2.728-2.421-2.728
			C117.658,56.545,116.601,57.557,116.359,59.273z"/>
		<path class="st1" d="M129.934,56.985c-0.265-0.176-0.683-0.264-1.101-0.264c-1.034,0-1.937,0.682-2.267,1.826v6.557h-1.649v-9.77
			h1.649v1.276c0.419-0.836,1.343-1.474,2.421-1.474c0.418,0,0.77,0.066,0.946,0.154L129.934,56.985L129.934,56.985z"/>
		<path class="st1" d="M132.309,62.42c0.309,1.012,1.167,1.497,2.311,1.497c1.166,0,2.003-0.462,2.003-1.452
			c0-0.682-0.44-1.101-1.453-1.364l-1.936-0.506c-1.387-0.352-2.354-1.056-2.354-2.574c0-1.738,1.519-2.882,3.498-2.882
			c2.156,0,3.433,1.056,3.785,2.772h-1.65c-0.286-0.88-0.969-1.386-2.156-1.386c-0.969,0-1.87,0.462-1.87,1.408
			c0,0.66,0.439,0.968,1.364,1.232l1.892,0.462c1.673,0.44,2.486,1.364,2.486,2.729c0,1.848-1.54,2.949-3.63,2.949
			c-2.135,0-3.697-1.079-4.005-2.883h1.715V62.42z"/>
	</g>
	<g>
		<path class="st0" d="M138.12,44.991h-4.554V22.514h4.554v1.359c0.735-0.881,2.351-1.726,4.114-1.726
			c4.774,0,7.492,3.967,7.492,8.594c0,4.628-2.718,8.558-7.492,8.558c-1.764,0-3.379-0.845-4.114-1.726V44.991z M138.12,33.422
			c0.552,1.139,1.764,1.91,3.086,1.91c2.46,0,3.93-1.983,3.93-4.591c0-2.645-1.47-4.627-3.93-4.627c-1.359,0-2.534,0.808-3.086,1.91
			V33.422z"/>
		<path class="st0" d="M154.138,20.384c-1.47,0-2.718-1.065-2.718-2.608c0-1.506,1.248-2.608,2.718-2.608
			c1.432,0,2.681,1.102,2.681,2.608C156.819,19.318,155.57,20.384,154.138,20.384z M156.414,38.931h-4.554V22.514h4.554V38.931z"/>
		<path class="st0" d="M163.979,44.991h-4.554V22.514h4.554v1.359c0.735-0.881,2.351-1.726,4.114-1.726
			c4.774,0,7.492,3.967,7.492,8.594c0,4.628-2.718,8.558-7.492,8.558c-1.764,0-3.379-0.845-4.114-1.726V44.991z M163.979,33.422
			c0.552,1.139,1.764,1.91,3.086,1.91c2.46,0,3.93-1.983,3.93-4.591c0-2.645-1.47-4.627-3.93-4.627c-1.359,0-2.534,0.808-3.086,1.91
			V33.422z"/>
		<path class="st0" d="M192.219,33.569c-0.588,3.489-3.159,5.729-7.272,5.729c-4.774,0-7.97-3.489-7.97-8.558
			c0-4.958,3.306-8.594,7.896-8.594c4.812,0,7.456,3.342,7.456,8.154v1.396h-10.945c0.146,2.461,1.543,3.93,3.562,3.93
			c1.543,0,2.682-0.661,3.049-2.057C187.995,33.569,192.219,33.569,192.219,33.569z M181.495,28.941h6.354
			c-0.036-1.726-1.064-3.085-2.938-3.085C183.147,25.856,181.898,26.921,181.495,28.941z"/>
		<path class="st0" d="M199.157,38.931h-4.554V15.058h4.554V38.931z"/>
		<path class="st0" d="M204.811,20.384c-1.47,0-2.718-1.065-2.718-2.608c0-1.506,1.248-2.608,2.718-2.608
			c1.432,0,2.681,1.102,2.681,2.608C207.492,19.318,206.243,20.384,204.811,20.384z M207.087,38.931h-4.554V22.514h4.554V38.931z"/>
		<path class="st0" d="M210.175,22.514h4.554v1.506c0.882-1.028,2.498-1.873,4.408-1.873c3.709,0,5.803,2.424,5.803,6.06v10.725
			h-4.555v-9.77c0-1.726-0.881-2.901-2.681-2.901c-1.396,0-2.607,0.845-2.976,2.277v10.394h-4.554L210.175,22.514L210.175,22.514z"
			/>
		<path class="st0" d="M242.216,33.569c-0.588,3.489-3.159,5.729-7.272,5.729c-4.774,0-7.97-3.489-7.97-8.558
			c0-4.958,3.306-8.594,7.896-8.594c4.812,0,7.456,3.342,7.456,8.154v1.396h-10.945c0.146,2.461,1.543,3.93,3.562,3.93
			c1.543,0,2.682-0.661,3.049-2.057C237.992,33.569,242.216,33.569,242.216,33.569z M231.492,28.941h6.354
			c-0.036-1.726-1.064-3.085-2.938-3.085C233.144,25.856,231.896,26.921,231.492,28.941z"/>
		<path class="st0" d="M248.236,34.046c0.367,1.175,1.396,1.8,2.755,1.8c1.396,0,2.313-0.551,2.313-1.616
			c0-0.734-0.514-1.102-1.652-1.396l-3.306-0.735c-2.497-0.587-4.261-1.873-4.261-4.627c0-3.195,2.865-5.326,6.538-5.326
			c4.15,0,6.427,1.983,6.979,5.068h-4.334c-0.294-0.918-1.065-1.616-2.571-1.616c-1.102,0-2.167,0.514-2.167,1.542
			c0,0.661,0.44,1.028,1.469,1.285l3.38,0.771c2.864,0.698,4.37,2.277,4.37,4.774c0,3.342-2.901,5.326-6.722,5.326
			c-4.003,0-6.831-1.91-7.309-5.252h4.518V34.046z"/>
	</g>
	<path class="st0" d="M22.424,22.424V12.106H14.55l0,0l-4.231-4.231V0H0v10.318h7.897l4.231,4.231l0,0v5.453l0,0l-4.231,4.231H0
		v10.318h10.318v-7.874l4.231-4.231h7.874L22.424,22.424L22.424,22.424z M3.439,3.439h3.439v3.439H3.439V3.439z M6.879,31.09h-3.44
		v-3.439h3.439v3.439H6.879z"/>
	<g>
		<path class="st1" d="M33.96,44.991h-4.554V22.514h4.554v1.359c0.735-0.882,2.351-1.727,4.114-1.727
			c4.774,0,7.492,3.967,7.492,8.595s-2.718,8.558-7.492,8.558c-1.764,0-3.379-0.845-4.114-1.727V44.991z M33.96,33.422
			c0.552,1.139,1.764,1.91,3.086,1.91c2.46,0,3.93-1.983,3.93-4.591c0-2.645-1.47-4.628-3.93-4.628c-1.359,0-2.534,0.808-3.086,1.91
			V33.422z"/>
		<path class="st1" d="M62.312,38.932h-4.554v-1.506c-0.919,1.028-2.498,1.873-4.407,1.873c-3.673,0-5.767-2.424-5.767-6.061V22.514
			h4.554v9.807c0,1.727,0.845,2.901,2.645,2.901c1.396,0,2.608-0.845,2.938-2.277V22.514h4.591V38.932z"/>
		<path class="st1" d="M69.912,44.991h-4.554V22.514h4.554v1.359c0.735-0.882,2.351-1.727,4.114-1.727
			c4.774,0,7.492,3.967,7.492,8.595s-2.718,8.558-7.492,8.558c-1.764,0-3.379-0.845-4.114-1.727V44.991z M69.912,33.422
			c0.552,1.139,1.764,1.91,3.086,1.91c2.46,0,3.93-1.983,3.93-4.591c0-2.645-1.47-4.628-3.93-4.628c-1.359,0-2.534,0.808-3.086,1.91
			V33.422z"/>
		<path class="st1" d="M88.088,44.991h-4.554V22.514h4.554v1.359c0.735-0.882,2.351-1.727,4.114-1.727
			c4.774,0,7.492,3.967,7.492,8.595s-2.718,8.558-7.492,8.558c-1.764,0-3.379-0.845-4.114-1.727V44.991z M88.088,33.422
			c0.552,1.139,1.764,1.91,3.086,1.91c2.46,0,3.93-1.983,3.93-4.591c0-2.645-1.47-4.628-3.93-4.628c-1.359,0-2.534,0.808-3.086,1.91
			V33.422z"/>
		<path class="st1" d="M116.147,33.569c-0.588,3.489-3.159,5.729-7.272,5.729c-4.774,0-7.97-3.489-7.97-8.558
			c0-4.958,3.306-8.595,7.896-8.595c4.812,0,7.456,3.343,7.456,8.154v1.396h-10.945c0.146,2.461,1.543,3.93,3.562,3.93
			c1.543,0,2.682-0.661,3.049-2.057L116.147,33.569L116.147,33.569z M105.422,28.941h6.354c-0.036-1.727-1.064-3.085-2.938-3.085
			C107.075,25.856,105.826,26.921,105.422,28.941z"/>
		<path class="st1" d="M119.192,26.186h-2.497v-3.673h2.497V18.07h4.518v4.443h3.6v3.673h-3.6v7.199
			c0,1.285,0.698,1.873,1.873,1.873c0.698,0,1.47-0.221,1.983-0.551v4.04c-0.624,0.33-1.726,0.514-2.938,0.514
			c-3.343,0-5.437-1.652-5.437-5.289L119.192,26.186L119.192,26.186z"/>
	</g>
</g>
</svg>
