<?xml version="1.0" encoding="utf-8"?>
<!-- Generator: Adobe Illustrator 21.1.0, SVG Export Plug-In . SVG Version: 6.00 Build 0)  -->
<svg version="1.1" id="Layer_1" xmlns="http://www.w3.org/2000/svg" xmlns:xlink="http://www.w3.org/1999/xlink" x="0px" y="0px"
	 viewBox="0 0 282 70" style="enable-background:new 0 0 282 70;" xml:space="preserve">
<style type="text/css">
	.st0{fill:#F9AC1E;}
	.st1{fill:#FFFFFF;}
</style>
<g>
	<path class="st0" d="M22.423,22.423V12.105h-7.874l0,0l-4.231-4.231V0H0v10.318h7.897l4.231,4.231l0,0v5.453l0,0l-4.231,4.231H0
		V34.55h10.318v-7.874l4.231-4.231h7.874V22.423z M3.439,3.439h3.439v3.439H3.439V3.439z M6.878,31.089H3.439V27.65h3.439V31.089z"
		/>
	<g>
		<path class="st1" d="M36.182,22.145c4.113,0,6.721,2.424,7.198,5.913H38.9c-0.257-1.249-1.249-2.02-2.718-2.02
			c-2.094,0-3.379,1.91-3.379,4.701c0,2.755,1.285,4.665,3.379,4.665c1.469,0,2.461-0.771,2.718-2.02h4.48
			c-0.478,3.526-3.085,5.913-7.198,5.913c-4.665,0-7.896-3.489-7.896-8.558C28.286,25.634,31.517,22.145,36.182,22.145z"/>
		<path class="st1" d="M52.927,39.297c-4.774,0-8.043-3.526-8.043-8.558c0-5.068,3.269-8.594,8.043-8.594
			c4.775,0,8.044,3.526,8.044,8.594C60.971,35.771,57.702,39.297,52.927,39.297z M52.927,26.001c-2.276,0-3.525,1.983-3.525,4.738
			c0,2.718,1.249,4.701,3.525,4.701c2.277,0,3.526-1.983,3.526-4.701C56.453,27.985,55.204,26.001,52.927,26.001z"/>
		<path class="st1" d="M63.06,22.512h4.554v1.506c0.882-1.028,2.498-1.873,4.408-1.873c3.709,0,5.803,2.424,5.803,6.06V38.93H73.27
			v-9.77c0-1.726-0.881-2.901-2.681-2.901c-1.396,0-2.607,0.845-2.976,2.277V38.93H63.06V22.512z"/>
		<path class="st1" d="M81.787,26.185H79.29v-3.673h2.497v-4.444h4.518v4.444h3.6v3.673h-3.6v7.199c0,1.286,0.698,1.873,1.873,1.873
			c0.698,0,1.47-0.22,1.983-0.551v4.04c-0.624,0.331-1.726,0.514-2.938,0.514c-3.343,0-5.437-1.653-5.437-5.289L81.787,26.185
			L81.787,26.185z"/>
		<path class="st1" d="M101.838,38.929v-0.881c-0.551,0.551-2.204,1.175-4.003,1.175c-3.306,0-6.098-1.91-6.098-5.326
			c0-3.122,2.792-5.252,6.354-5.252c1.433,0,3.085,0.478,3.746,0.955v-1.212c0-1.396-0.845-2.534-2.681-2.534
			c-1.286,0-2.058,0.588-2.425,1.542h-4.334c0.478-2.975,3.159-5.252,6.905-5.252c4.371,0,6.905,2.387,6.905,6.317v10.467
			L101.838,38.929L101.838,38.929z M101.838,33.273c-0.404-0.881-1.652-1.432-2.975-1.432c-1.433,0-2.901,0.625-2.901,2.02
			c0,1.432,1.469,2.02,2.901,2.02c1.322,0,2.57-0.551,2.975-1.433V33.273z"/>
		<path class="st1" d="M111.2,20.382c-1.47,0-2.718-1.065-2.718-2.608c0-1.506,1.248-2.608,2.718-2.608
			c1.432,0,2.681,1.102,2.681,2.608C113.881,19.317,112.632,20.382,111.2,20.382z M113.476,38.929h-4.554V22.512h4.554V38.929z"/>
		<path class="st1" d="M116.563,22.512h4.554v1.506c0.882-1.028,2.498-1.873,4.408-1.873c3.709,0,5.803,2.424,5.803,6.06V38.93
			h-4.555v-9.77c0-1.726-0.881-2.901-2.681-2.901c-1.396,0-2.607,0.845-2.976,2.277V38.93h-4.554L116.563,22.512L116.563,22.512z"/>
		<path class="st1" d="M148.604,33.567c-0.588,3.489-3.159,5.729-7.272,5.729c-4.774,0-7.97-3.489-7.97-8.558
			c0-4.958,3.306-8.594,7.896-8.594c4.812,0,7.456,3.342,7.456,8.154v1.396h-10.945c0.146,2.461,1.543,3.93,3.562,3.93
			c1.543,0,2.682-0.661,3.049-2.057C144.38,33.567,148.604,33.567,148.604,33.567z M137.88,28.939h6.354
			c-0.036-1.726-1.064-3.085-2.938-3.085C139.532,25.854,138.284,26.919,137.88,28.939z"/>
		<path class="st1" d="M160.937,26.993c-0.624-0.367-1.433-0.551-2.277-0.551c-1.542,0-2.791,0.808-3.122,2.313v10.174h-4.554
			V22.512h4.554v1.616c0.698-1.175,2.058-1.983,3.673-1.983c0.771,0,1.47,0.147,1.727,0.294v4.554H160.937z"/>
		<path class="st1" d="M180.656,26.993c-0.624-0.367-1.433-0.551-2.277-0.551c-1.542,0-2.791,0.808-3.122,2.313v10.174h-4.554
			V22.512h4.554v1.616c0.698-1.175,2.058-1.983,3.673-1.983c0.771,0,1.47,0.147,1.727,0.294v4.554H180.656z"/>
		<path class="st1" d="M196.594,33.567c-0.588,3.489-3.159,5.729-7.272,5.729c-4.774,0-7.97-3.489-7.97-8.558
			c0-4.958,3.306-8.594,7.896-8.594c4.812,0,7.456,3.342,7.456,8.154v1.396h-10.945c0.146,2.461,1.543,3.93,3.562,3.93
			c1.543,0,2.682-0.661,3.049-2.057C192.37,33.567,196.594,33.567,196.594,33.567z M185.869,28.939h6.354
			c-0.036-1.726-1.064-3.085-2.938-3.085C187.521,25.854,186.272,26.919,185.869,28.939z"/>
		<path class="st1" d="M209.812,36.873c-0.735,0.881-2.241,1.689-4.04,1.689c-4.738,0-7.456-3.82-7.456-8.227
			c0-4.371,2.718-8.19,7.456-8.19c1.799,0,3.305,0.808,4.04,1.653v-1.286h4.518V37.13c0,5.62-3.416,8.228-8.044,8.228
			c-4.261,0-7.162-2.167-7.64-5.84h4.407c0.368,1.542,1.47,2.313,3.232,2.313c2.313,0,3.526-1.359,3.526-4.003v-0.955H209.812z
			 M209.812,27.654c-0.552-0.918-1.727-1.689-3.086-1.689c-2.424,0-3.856,1.836-3.856,4.371c0,2.571,1.433,4.407,3.856,4.407
			c1.359,0,2.534-0.771,3.086-1.726V27.654z"/>
		<path class="st1" d="M219.541,20.382c-1.47,0-2.718-1.065-2.718-2.608c0-1.506,1.248-2.608,2.718-2.608
			c1.432,0,2.681,1.102,2.681,2.608C222.222,19.317,220.973,20.382,219.541,20.382z M221.817,38.929h-4.554V22.512h4.554V38.929z"/>
		<path class="st1" d="M228.537,34.045c0.367,1.175,1.396,1.8,2.755,1.8c1.396,0,2.313-0.551,2.313-1.616
			c0-0.734-0.514-1.102-1.652-1.396l-3.306-0.735c-2.497-0.587-4.261-1.873-4.261-4.627c0-3.195,2.865-5.326,6.538-5.326
			c4.15,0,6.427,1.983,6.979,5.068h-4.334c-0.294-0.918-1.065-1.616-2.571-1.616c-1.102,0-2.167,0.514-2.167,1.542
			c0,0.661,0.44,1.028,1.469,1.285l3.379,0.771c2.865,0.698,4.371,2.277,4.371,4.774c0,3.342-2.901,5.326-6.721,5.326
			c-4.004,0-6.832-1.91-7.31-5.252h4.518V34.045z"/>
		<path class="st1" d="M241.535,26.185h-2.497v-3.673h2.497v-4.444h4.518v4.444h3.6v3.673h-3.6v7.199
			c0,1.286,0.698,1.873,1.873,1.873c0.698,0,1.47-0.22,1.983-0.551v4.04c-0.624,0.331-1.726,0.514-2.938,0.514
			c-3.343,0-5.437-1.653-5.437-5.289L241.535,26.185L241.535,26.185z"/>
		<path class="st1" d="M262.541,26.993c-0.624-0.367-1.433-0.551-2.277-0.551c-1.542,0-2.791,0.808-3.122,2.313v10.174h-4.554
			V22.512h4.554v1.616c0.698-1.175,2.058-1.983,3.673-1.983c0.771,0,1.47,0.147,1.727,0.294L262.541,26.993L262.541,26.993z"/>
		<path class="st1" d="M267.203,44.99l2.387-5.987l-6.28-16.491h4.812l3.783,10.908l3.746-10.908h4.591l-8.558,22.478H267.203z"/>
	</g>
	<g>
		<path class="st1" d="M30.547,68.846h-1.649V55.335h1.649v1.145c0.507-0.704,1.541-1.342,2.751-1.342c2.882,0,4.4,2.376,4.4,5.082
			c0,2.707-1.519,5.083-4.4,5.083c-1.21,0-2.244-0.638-2.751-1.342V68.846z M30.547,62.2c0.507,1.013,1.475,1.606,2.509,1.606
			c1.87,0,2.971-1.519,2.971-3.587s-1.101-3.586-2.971-3.586c-1.034,0-2.002,0.594-2.509,1.606
			C30.547,58.239,30.547,62.2,30.547,62.2z"/>
		<path class="st1" d="M44.494,56.985c-0.265-0.176-0.683-0.264-1.101-0.264c-1.034,0-1.937,0.682-2.267,1.826v6.557h-1.649v-9.77
			h1.649v1.276c0.419-0.836,1.343-1.474,2.421-1.474c0.418,0,0.77,0.065,0.946,0.153L44.494,56.985L44.494,56.985z"/>
		<path class="st1" d="M53.614,62.179c-0.352,1.848-1.738,3.124-3.938,3.124c-2.662,0-4.488-2.046-4.488-5.061
			c0-2.927,1.782-5.104,4.444-5.104c2.685,0,4.114,1.958,4.114,4.796v0.595h-6.909c0.022,2.09,1.188,3.366,2.839,3.366
			c1.21,0,2.112-0.616,2.376-1.716C52.052,62.179,53.614,62.179,53.614,62.179z M46.88,59.273h5.193
			c-0.022-1.452-0.792-2.728-2.421-2.728C48.179,56.546,47.122,57.557,46.88,59.273z"/>
		<path class="st1" d="M65.439,55.138c1.979,0,3.08,1.386,3.08,3.498v6.469h-1.672V58.9c0-1.363-0.595-2.266-1.849-2.266
			c-0.99,0-1.849,0.682-2.156,1.738v6.732h-1.65v-6.205c0-1.363-0.594-2.266-1.849-2.266c-0.989,0-1.848,0.682-2.156,1.738v6.732
			h-1.649v-9.77h1.649v1.145c0.484-0.771,1.431-1.342,2.641-1.342c1.232,0,2.179,0.638,2.641,1.562
			C63.084,55.819,64.075,55.138,65.439,55.138z"/>
		<path class="st1" d="M71.606,53.443c-0.572,0-1.056-0.484-1.056-1.057c0-0.594,0.483-1.056,1.056-1.056
			c0.595,0,1.078,0.462,1.078,1.056C72.684,52.959,72.201,53.443,71.606,53.443z M72.442,65.104h-1.649v-9.77h1.649V65.104z"/>
		<path class="st1" d="M82.616,65.104h-1.673v-1.231c-0.55,0.77-1.584,1.43-2.838,1.43c-2.223,0-3.411-1.43-3.411-3.564v-6.403
			h1.673v6.14c0,1.364,0.66,2.31,2.134,2.31c1.145,0,2.091-0.77,2.442-1.826v-6.623h1.673V65.104z"/>
		<path class="st1" d="M94.872,55.138c1.979,0,3.08,1.386,3.08,3.498v6.469H96.28V58.9c0-1.363-0.595-2.266-1.849-2.266
			c-0.99,0-1.849,0.682-2.156,1.738v6.732h-1.65v-6.205c0-1.363-0.594-2.266-1.849-2.266c-0.989,0-1.848,0.682-2.156,1.738v6.732
			h-1.649v-9.77h1.649v1.145c0.484-0.771,1.431-1.342,2.641-1.342c1.232,0,2.179,0.638,2.641,1.562
			C92.518,55.819,93.508,55.138,94.872,55.138z"/>
	</g>
</g>
</svg>
